# Blender 3.4.1
# www.blender.org
mtllib CandyGunBullet.mtl
o Cube.001
v 0.616119 2.548163 -3.176667
v 0.620607 2.883211 -3.176651
v 0.237324 2.552227 -3.176672
v 0.241645 2.887275 -3.176686
v 0.563857 2.830914 -3.324329
v 0.633350 2.892506 -3.266457
v 0.628537 2.538799 -3.266496
v 0.560742 2.602026 -3.324354
v 0.294138 2.604838 -3.324367
v 0.224540 2.543060 -3.266516
v 0.297253 2.833726 -3.324342
v 0.229353 2.896766 -3.266476
v 0.527803 2.624240 -3.073982
v 0.328752 2.626681 -3.073907
v 0.330312 2.811509 -3.074188
v 0.529592 2.809076 -3.074072
v 0.451880 2.655995 -2.802098
v 0.435008 2.645108 -2.802106
v 0.453921 2.644730 -3.001797
v 0.489981 2.693143 -2.802074
v 0.502464 2.691838 -3.001772
v 0.501296 2.709935 -2.802064
v 0.367945 2.694623 -2.802119
v 0.356879 2.711677 -2.802121
v 0.355544 2.693634 -3.001780
v 0.405551 2.656546 -2.802113
v 0.403497 2.645354 -3.001787
v 0.422267 2.645259 -2.802109
v 0.401212 2.774739 -2.783563
v 0.406638 2.790763 -2.868019
v 0.368229 2.742026 -2.802123
v 0.356230 2.743552 -3.001836
v 0.356914 2.725221 -2.802118
v 0.490411 2.740554 -2.802068
v 0.501478 2.723485 -2.802056
v 0.502502 2.741771 -3.001786
v 0.457871 2.774066 -2.709956
v 0.452683 2.790198 -2.867985
v 0.689403 2.714925 -3.176656
v 0.168445 2.720513 -3.176683
v 0.425896 2.487374 -3.176669
v 0.431952 2.948064 -3.176669
v 0.610588 2.871376 -3.303413
v 0.430866 2.854915 -3.328321
v 0.251599 2.875162 -3.303430
v 0.432254 2.960956 -3.266459
v 0.268977 2.719570 -3.328343
v 0.247369 2.564308 -3.303465
v 0.151197 2.720712 -3.266500
v 0.606358 2.560523 -3.303448
v 0.589025 2.716195 -3.328328
v 0.706693 2.714854 -3.266474
v 0.427136 2.580849 -3.328351
v 0.425636 2.474609 -3.266513
v 0.224878 2.901657 -3.223053
v 0.637877 2.897293 -3.223032
v 0.632939 2.533788 -3.223069
v 0.219961 2.538152 -3.223087
v 0.430323 2.846622 -3.081118
v 0.568765 2.716181 -3.080956
v 0.427882 2.589143 -3.080880
v 0.289441 2.719551 -3.080984
v 0.578101 2.848307 -3.128546
v 0.574749 2.583987 -3.128512
v 0.280139 2.587300 -3.128482
v 0.283031 2.851621 -3.128615
v 0.452913 2.653825 -2.967288
v 0.440889 2.647322 -2.801891
v 0.438211 2.644566 -2.967395
v 0.498921 2.703928 -2.801854
v 0.492418 2.692346 -2.967262
v 0.502057 2.706956 -2.967352
v 0.365605 2.693883 -2.967288
v 0.359158 2.705620 -2.801907
v 0.356164 2.708718 -2.967384
v 0.416423 2.647610 -2.801897
v 0.404652 2.654404 -2.967296
v 0.419236 2.644795 -2.967397
v 0.359249 2.731234 -2.801905
v 0.366211 2.742970 -2.967303
v 0.356265 2.728343 -2.967381
v 0.492504 2.741447 -2.967269
v 0.499239 2.729550 -2.801843
v 0.502254 2.726587 -2.967344
v 0.471281 2.674215 -2.802214
v 0.482257 2.664285 -3.002943
v 0.386392 2.675239 -2.802244
v 0.375392 2.665600 -3.002932
v 0.386408 2.760404 -2.786482
v 0.405716 2.780591 -2.794672
v 0.377879 2.771155 -2.989307
v 0.453454 2.780023 -2.794646
v 0.472478 2.759373 -2.786440
v 0.481203 2.769891 -2.989255
v 0.434282 2.645247 -2.431503
v 0.451444 2.656345 -2.431494
v 0.500925 2.710356 -2.431461
v 0.489385 2.693316 -2.431471
v 0.357045 2.712089 -2.431572
v 0.368284 2.694781 -2.431556
v 0.422552 2.645386 -2.431506
v 0.405590 2.656891 -2.431518
v 0.501096 2.722762 -2.431457
v 0.489979 2.740076 -2.431466
v 0.440083 2.790349 -2.430835
v 0.454964 2.776639 -2.431429
v 0.501851 2.716704 -2.802188
v 0.510550 2.716708 -3.006115
v 0.428633 2.644726 -2.802236
v 0.428653 2.637642 -3.006139
v 0.356432 2.718452 -2.802248
v 0.347816 2.718700 -3.006147
v 0.357094 2.724488 -2.431582
v 0.368512 2.741535 -2.431579
v 0.419256 2.790597 -2.430869
v 0.404139 2.777241 -2.431487
v 0.429715 2.798019 -2.831288
v 0.479687 2.629744 -3.033659
v 0.519928 2.667840 -3.033660
v 0.377343 2.631037 -3.033599
v 0.520458 2.765491 -3.033703
v 0.337642 2.670122 -3.033614
v 0.338622 2.767759 -3.033804
v 0.379883 2.805925 -3.020130
v 0.479730 2.804671 -3.020043
v 0.425526 2.467813 -3.223085
v 0.470754 2.674483 -2.431481
v 0.386592 2.675497 -2.431535
v 0.631679 2.715527 -3.128869
v 0.386675 2.760113 -2.431559
v 0.712843 2.714723 -3.223046
v 0.429009 2.717896 -3.336704
v 0.144984 2.720723 -3.223073
v 0.431154 2.899431 -3.128942
v 0.226329 2.720078 -3.128896
v 0.426854 2.536177 -3.128829
v 0.431882 2.931177 -3.303808
v 0.182526 2.720442 -3.303844
v 0.675432 2.715244 -3.303820
v 0.426076 2.504509 -3.303856
v 0.432301 2.967632 -3.223035
v 0.428412 2.644840 -2.431502
v 0.356592 2.718292 -2.431575
v 0.498252 2.649723 -3.023323
v 0.428428 2.620618 -3.038058
v 0.327362 2.719074 -3.038126
v 0.429885 2.815114 -3.017867
v 0.429687 2.792464 -2.430630
v 0.501488 2.716552 -2.431457
v 0.472135 2.759090 -2.431473
v 0.497904 2.784148 -3.019716
v 0.359112 2.651469 -3.023267
v 0.530957 2.716536 -3.038096
v 0.361412 2.785851 -3.019815
v 0.442537 2.646886 -2.954102
v 0.499504 2.702467 -2.954065
v 0.358644 2.704172 -2.954098
v 0.414938 2.647213 -2.954108
v 0.358797 2.732823 -2.954091
v 0.499784 2.731126 -2.954054
v 0.473466 2.672306 -2.967913
v 0.384315 2.673385 -2.967929
v 0.385806 2.762876 -2.947063
v 0.473145 2.761827 -2.947035
v 0.440302 2.647537 -2.431503
v 0.498477 2.704247 -2.431467
v 0.359383 2.705928 -2.431570
v 0.416577 2.647818 -2.431512
v 0.498809 2.728929 -2.431460
v 0.445836 2.785851 -2.431238
v 0.503400 2.716757 -2.968284
v 0.428714 2.643528 -2.968333
v 0.354969 2.718545 -2.968318
v 0.359491 2.730601 -2.431586
v 0.413423 2.786233 -2.431283
vn 0.2818 -0.8840 0.3731
vn -0.3008 -0.8768 0.3752
vn -0.3197 -0.9366 -0.1435
vn 0.2993 -0.9434 -0.1430
vn 0.6846 -0.7289 0.0015
vn 0.7111 -0.7030 0.0015
vn -0.7248 -0.6889 0.0009
vn -0.6990 -0.7151 0.0008
vn 0.6146 0.2285 0.7550
vn 0.6115 -0.2432 0.7529
vn 0.6173 -0.2686 0.7395
vn 0.6225 0.2522 0.7409
vn -0.7133 0.7009 0.0013
vn -0.6982 0.7159 0.0009
vn 0.8398 0.3441 0.4200
vn 0.8312 -0.3663 0.4182
vn 0.9062 -0.4012 -0.1338
vn 0.9165 0.3773 -0.1329
vn -0.0456 0.0546 -0.9975
vn 0.0468 0.0534 -0.9975
vn 0.0456 -0.0544 -0.9975
vn -0.0467 -0.0532 -0.9975
vn -0.8394 -0.3442 0.4207
vn -0.8314 0.3660 0.4181
vn -0.9061 0.4012 -0.1342
vn -0.9162 -0.3772 -0.1351
vn -0.2052 0.6761 0.7076
vn 0.2199 0.6701 0.7090
vn 0.2335 0.6782 0.6968
vn -0.2191 0.6846 0.6952
vn -0.6139 -0.2282 0.7557
vn -0.6101 0.2424 0.7543
vn -0.6170 0.2680 0.7399
vn -0.6209 -0.2520 0.7423
vn 0.2057 -0.6763 0.7073
vn -0.2203 -0.6693 0.7096
vn -0.2335 -0.6771 0.6979
vn 0.2191 -0.6843 0.6955
vn 0.1006 0.3249 -0.9404
vn -0.0936 0.3274 -0.9402
vn -0.2402 0.7639 -0.5990
vn 0.2567 0.7582 -0.5994
vn -0.2882 0.1199 -0.9500
vn -0.2906 -0.1118 -0.9503
vn -0.7278 -0.3020 -0.6158
vn -0.7206 0.3216 -0.6143
vn 0.2883 -0.1197 -0.9500
vn 0.2909 0.1121 -0.9502
vn 0.7288 0.3025 -0.6143
vn 0.7208 -0.3215 -0.6141
vn -0.1004 -0.3243 -0.9406
vn 0.0936 -0.3269 -0.9404
vn 0.2400 -0.7629 -0.6003
vn -0.2562 -0.7568 -0.6013
vn -0.2817 0.8838 0.3735
vn 0.3007 0.8768 0.3752
vn 0.3198 0.9370 -0.1405
vn -0.2993 0.9437 -0.1410
vn -0.0879 -0.9961 0.0003
vn 0.0642 -0.9979 0.0004
vn -0.9971 0.0757 0.0005
vn -0.9976 -0.0692 0.0005
vn 0.3965 -0.6264 0.6712
vn 0.5457 -0.5764 0.6083
vn 0.5990 -0.4114 0.6870
vn -0.2295 -0.8372 0.4965
vn 0.2097 -0.8432 0.4950
vn 0.1278 -0.8650 0.4853
vn -0.1488 -0.8616 0.4853
vn -0.7858 0.2464 0.5673
vn -0.7921 -0.2308 0.5651
vn -0.8267 -0.1356 0.5461
vn -0.8215 0.1554 0.5487
vn 0.2711 0.8816 0.3863
vn -0.2503 0.8881 0.3856
vn -0.2749 0.9549 0.1125
vn 0.2978 0.9480 0.1123
vn 0.2962 0.9551 0.0106
vn -0.2737 0.9618 0.0107
vn 0.9963 -0.0859 0.0010
vn 0.9983 0.0589 0.0011
vn 0.7269 0.6868 0.0015
vn 0.7135 0.7006 0.0011
vn 0.7226 0.3344 0.6051
vn 0.6517 0.4699 0.5954
vn 0.9247 0.2735 0.2647
vn -0.6062 -0.4012 0.6867
vn -0.5561 -0.5647 0.6098
vn -0.4098 -0.6182 0.6707
vn 0.7889 -0.2459 0.5632
vn 0.7908 0.2319 0.5665
vn 0.8247 0.1421 0.5475
vn 0.8247 -0.1492 0.5455
vn -0.9203 0.2879 0.2649
vn -0.6430 0.4819 0.5952
vn -0.7167 0.3453 0.6059
vn 0.5947 -0.8039 0.0116
vn 0.3962 -0.9181 0.0089
vn 0.5250 -0.8354 0.1631
vn 0.7899 -0.6132 0.0119
vn 0.8228 -0.5418 0.1717
vn 0.9099 -0.4147 0.0097
vn -0.8004 -0.5993 0.0113
vn -0.9165 -0.3999 0.0091
vn -0.8317 -0.5282 0.1708
vn -0.6105 -0.7919 0.0109
vn -0.5421 -0.8245 0.1622
vn -0.4164 -0.9092 0.0084
vn -0.7839 0.6208 0.0111
vn -0.8156 0.5537 0.1683
vn -0.9116 0.4109 0.0093
vn 0.7945 0.6072 0.0113
vn 0.9184 0.3956 0.0097
vn 0.8247 0.5402 0.1674
vn 0.7189 -0.6949 0.0157
vn 0.6766 -0.7362 0.0157
vn 0.5973 -0.7552 0.2701
vn 0.7372 -0.6171 0.2754
vn -0.6903 -0.7234 0.0149
vn -0.7314 -0.6817 0.0151
vn -0.7480 -0.6044 0.2742
vn -0.6121 -0.7437 0.2689
vn -0.7179 0.6960 0.0131
vn -0.7190 0.6948 0.0173
vn -0.9236 0.3658 0.1144
vn -0.8099 0.5306 0.2501
vn 0.7330 0.6801 0.0121
vn 0.7304 0.6828 0.0132
vn 0.8184 0.5178 0.2492
vn 0.9290 0.3520 0.1141
vn 0.3540 -0.9352 0.0011
vn 0.6198 -0.7848 0.0015
vn 0.9291 -0.3699 0.0014
vn 0.7693 -0.6389 0.0015
vn -0.9354 -0.3536 0.0008
vn -0.7813 -0.6241 0.0010
vn -0.3751 -0.9270 0.0006
vn -0.6359 -0.7718 0.0007
vn 0.9379 0.3470 0.0017
vn 0.7819 0.6233 0.0018
vn 0.8761 0.4817 0.0185
vn 0.7369 0.6760 0.0032
vn 0.9959 0.0906 0.0078
vn 0.9935 -0.1133 0.0079
vn 0.9595 -0.2381 0.1503
vn 0.9618 0.2312 0.1469
vn 0.0887 -0.9960 0.0061
vn -0.1125 -0.9936 0.0060
vn -0.2316 -0.9651 0.1219
vn 0.2083 -0.9704 0.1220
vn -0.9952 -0.0979 0.0074
vn -0.9943 0.1062 0.0074
vn -0.9579 0.2461 0.1476
vn -0.9631 -0.2235 0.1499
vn -0.9316 0.3635 0.0012
vn -0.7700 0.6380 0.0015
vn -0.8677 0.4967 0.0186
vn -0.7316 0.6818 0.0031
vn -0.0009 -0.0018 1.0000
vt 0.912484 0.633576
vt 0.919450 0.909964
vt 0.606534 0.634687
vt 0.601515 0.915474
vt 0.129167 0.891765
vt 0.110742 0.233326
vt 0.080150 0.936582
vt 0.427371 0.138671
vt 0.060040 0.074300
vt 0.423652 0.244110
vt 0.080863 0.669396
vt 0.130242 0.712787
vt 0.337689 0.715877
vt 0.429101 0.087019
vt 0.112652 0.180693
vt 0.385049 0.674304
vt 0.334133 0.893749
vt 0.425575 0.191477
vt 0.378927 0.939082
vt 0.058320 0.125953
vt 0.848150 0.687604
vt 0.673555 0.688966
vt 0.671417 0.855284
vt 0.850191 0.852437
vt 0.603002 0.356438
vt 0.916120 0.384047
vt 0.931799 0.387013
vt 0.784774 0.700968
vt 0.611277 0.510128
vt 0.914978 0.573786
vt 0.572225 0.362625
vt 0.829702 0.745059
vt 0.572189 0.522113
vt 0.558281 0.364235
vt 0.676453 0.367305
vt 0.688097 0.369730
vt 0.692287 0.746520
vt 0.675311 0.525842
vt 0.653176 0.359207
vt 0.960064 0.383724
vt 0.737903 0.701369
vt 0.645799 0.509905
vt 0.962808 0.573317
vt 0.943982 0.386922
vt 0.741125 0.345269
vt 0.854862 0.249092
vt 0.754217 0.407340
vt 0.851295 0.172560
vt 0.712978 0.366863
vt 0.692052 0.793980
vt 0.714223 0.525238
vt 0.698616 0.369610
vt 0.535040 0.360500
vt 0.547568 0.363627
vt 0.829746 0.792201
vt 0.532808 0.518599
vt 0.512290 0.282848
vt 0.805502 0.312310
vt 0.500471 0.400031
vt 0.811190 0.172437
vt 0.973316 0.768567
vt 0.544528 0.773008
vt 0.760470 0.584194
vt 0.761933 0.967351
vt 0.094658 0.922221
vt 0.231813 0.910263
vt 0.366504 0.924610
vt 0.229559 0.986653
vt 0.262843 0.123540
vt 0.356828 0.805465
vt 0.371803 0.686436
vt 0.297324 0.176376
vt 0.437897 0.808565
vt 0.095538 0.682079
vt 0.108669 0.802419
vt 0.295418 0.229172
vt 0.023385 0.803501
vt 0.234604 0.696077
vt 0.264561 0.071761
vt 0.234291 0.620909
vt 0.430593 0.149702
vt 0.592533 0.923332
vt 0.055143 0.083854
vt 0.107198 0.191261
vt 0.928416 0.917436
vt 0.432414 0.096855
vt 0.056932 0.032187
vt 0.920704 0.627143
vt 0.428779 0.202339
vt 0.434195 0.045188
vt 0.597982 0.628162
vt 0.108991 0.138617
vt 0.761234 0.886722
vt 0.883698 0.768752
vt 0.761189 0.657253
vt 0.637228 0.771631
vt 0.888331 0.883870
vt 0.883722 0.657886
vt 0.636589 0.659205
vt 0.633024 0.888089
vt 0.916093 0.538214
vt 0.604300 0.482900
vt 0.926250 0.386214
vt 0.929676 0.541860
vt 0.563183 0.363847
vt 0.572406 0.491995
vt 0.560292 0.493999
vt 0.676711 0.495609
vt 0.683709 0.369082
vt 0.686883 0.498674
vt 0.949607 0.386042
vt 0.961631 0.537806
vt 0.652540 0.483516
vt 0.947705 0.541697
vt 0.703571 0.368852
vt 0.714669 0.495027
vt 0.702153 0.498480
vt 0.533924 0.488790
vt 0.542961 0.362698
vt 0.544795 0.492740
vt 0.588032 0.359689
vt 0.810930 0.719307
vt 0.594975 0.518504
vt 0.664336 0.363379
vt 0.711429 0.720244
vt 0.656676 0.520054
vt 0.728888 0.350710
vt 0.745997 0.352622
vt 0.851266 0.238343
vt 0.875993 0.073078
vt 0.711607 0.820858
vt 0.737708 0.507907
vt 0.508111 0.345657
vt 0.809915 0.238185
vt 0.522040 0.344021
vt 0.810222 0.819448
vt 0.787050 0.072856
vt 0.512927 0.500438
vt 0.930361 0.032509
vt 0.099254 0.282828
vt 0.603546 0.072271
vt 0.914184 0.032373
vt 0.153216 0.271610
vt 0.558633 0.072748
vt 0.349694 0.281151
vt 0.572830 0.072651
vt 0.295518 0.270488
vt 0.685794 0.082012
vt 0.074309 0.560459
vt 0.674024 0.081980
vt 0.063625 0.504658
vt 0.941751 0.032461
vt 0.076756 0.305251
vt 0.650956 0.081734
vt 0.958339 0.032200
vt 0.065295 0.359502
vt 0.548791 0.072703
vt 0.373527 0.304439
vt 0.536021 0.072496
vt 0.385291 0.358581
vt 0.819538 0.553000
vt 0.386082 0.552057
vt 0.510976 0.071877
vt 0.806374 0.552655
vt 0.388260 0.496337
vt 0.552892 0.364131
vt 0.836983 0.768509
vt 0.551937 0.526361
vt 0.937884 0.387216
vt 0.761382 0.694591
vt 0.938793 0.580684
vt 0.693299 0.369878
vt 0.684815 0.770308
vt 0.693828 0.531808
vt 0.695407 0.081919
vt 0.098006 0.584760
vt 0.709965 0.081620
vt 0.153027 0.595966
vt 0.837708 0.553094
vt 0.346287 0.593252
vt 0.740743 0.080791
vt 0.850378 0.552904
vt 0.291173 0.596476
vt 0.831184 0.202767
vt 0.807554 0.689480
vt 0.843814 0.724093
vt 0.714934 0.690243
vt 0.844489 0.813930
vt 0.678047 0.725731
vt 0.677092 0.816322
vt 0.876283 0.035863
vt 0.714230 0.853003
vt 0.807611 0.851491
vt 0.788633 0.035712
vt 0.760402 0.575301
vt 0.266105 0.029542
vt 0.588601 0.072463
vt 0.224407 0.269750
vt 0.662021 0.081861
vt 0.063147 0.431772
vt 0.932331 0.768635
vt 0.726143 0.081209
vt 0.224208 0.596959
vt 0.985030 0.768794
vt 0.296839 0.187041
vt 0.233382 0.803650
vt 0.532393 0.773416
vt 0.298632 0.134234
vt 0.761592 0.930091
vt 0.587113 0.772381
vt 0.760802 0.617554
vt 0.230561 0.967149
vt 0.419817 0.807092
vt 0.043455 0.802481
vt 0.234827 0.638794
vt 0.762105 0.977921
vt 0.264327 0.081340
vt 0.936049 0.032492
vt 0.087112 0.293132
vt 0.690540 0.081971
vt 0.085215 0.573546
vt 0.824747 0.707010
vt 0.761360 0.681378
vt 0.667961 0.770902
vt 0.761011 0.861775
vt 0.832644 0.034634
vt 0.828658 0.553203
vt 0.370111 0.576536
vt 0.553681 0.072730
vt 0.362500 0.291875
vt 0.522785 0.072195
vt 0.387524 0.429235
vt 0.824541 0.831961
vt 0.772797 0.042268
vt 0.697489 0.708161
vt 0.853601 0.768662
vt 0.891241 0.042499
vt 0.697189 0.833892
vt 0.925568 0.528628
vt 0.564025 0.483146
vt 0.683599 0.487550
vt 0.951759 0.528398
vt 0.705848 0.487263
vt 0.541437 0.481357
vt 0.589095 0.488178
vt 0.663754 0.490226
vt 0.731865 0.473133
vt 0.519883 0.466444
vt 0.924599 0.032493
vt 0.115196 0.275841
vt 0.563637 0.072739
vt 0.333484 0.274153
vt 0.681350 0.082027
vt 0.067222 0.543797
vt 0.947597 0.032400
vt 0.069689 0.321217
vt 0.544088 0.072653
vt 0.380889 0.320521
vt 0.814440 0.552700
vt 0.388450 0.532014
vt 0.552457 0.494478
vt 0.938677 0.543102
vt 0.694374 0.499721
vt 0.700444 0.081839
vt 0.114389 0.592107
vt 0.842648 0.552853
vt 0.326532 0.596024
s 0
usemtl Material.001
f 1/1/1 41/63/1 126/195/1 57/88/1
f 41/63/2 3/3/2 58/91/2 126/195/2
f 126/196/3 58/90/3 10/14/3 54/79/3
f 57/87/4 126/196/4 54/79/4 7/9/4
f 96/141/5 17/25/5 85/121/5 127/197/5
f 127/197/6 85/121/6 20/31/6 98/146/6
f 100/150/7 23/35/7 87/124/7 128/199/7
f 128/199/8 87/124/8 26/39/8 102/154/8
f 16/24/9 60/94/9 129/201/9 63/97/9
f 60/94/10 13/21/10 64/98/10 129/201/10
f 129/201/11 64/98/11 1/1/11 39/61/11
f 63/97/12 129/201/12 39/61/12 2/2/12
f 31/49/13 114/177/13 130/202/13 89/127/13
f 89/127/14 130/202/14 116/181/14 29/45/14
f 2/2/15 39/61/15 131/204/15 56/85/15
f 39/61/16 1/1/16 57/88/16 131/204/16
f 131/205/17 57/89/17 7/10/17 52/76/17
f 56/84/18 131/205/18 52/76/18 6/6/18
f 11/17/19 44/66/19 132/206/19 47/70/19
f 44/66/20 5/5/20 51/75/20 132/206/20
f 132/206/21 51/75/21 8/12/21 53/78/21
f 47/70/22 132/206/22 53/78/22 9/13/22
f 3/3/23 40/62/23 133/207/23 58/91/23
f 40/62/24 4/4/24 55/82/24 133/207/24
f 133/208/25 55/81/25 12/18/25 49/72/25
f 58/92/26 133/208/26 49/72/26 10/15/26
f 15/23/27 59/93/27 134/209/27 66/100/27
f 59/93/28 16/24/28 63/97/28 134/209/28
f 134/209/29 63/97/29 2/2/29 42/64/29
f 66/100/30 134/209/30 42/64/30 4/4/30
f 14/22/31 62/96/31 135/210/31 65/99/31
f 62/96/32 15/23/32 66/100/32 135/210/32
f 135/210/33 66/100/33 4/4/33 40/62/33
f 65/99/34 135/210/34 40/62/34 3/3/34
f 13/21/35 61/95/35 136/211/35 64/98/35
f 61/95/36 14/22/36 65/99/36 136/211/36
f 136/211/37 65/99/37 3/3/37 41/63/37
f 64/98/38 136/211/38 41/63/38 1/1/38
f 5/5/39 44/66/39 137/212/39 43/65/39
f 44/66/40 11/17/40 45/67/40 137/212/40
f 137/212/41 45/67/41 12/19/41 46/68/41
f 43/65/42 137/212/42 46/68/42 6/7/42
f 11/17/43 47/70/43 138/213/43 45/67/43
f 47/70/44 9/13/44 48/71/44 138/213/44
f 138/213/45 48/71/45 10/16/45 49/73/45
f 45/67/46 138/213/46 49/73/46 12/19/46
f 8/12/47 51/75/47 139/214/47 50/74/47
f 51/75/48 5/5/48 43/65/48 139/214/48
f 139/214/49 43/65/49 6/7/49 52/77/49
f 50/74/50 139/214/50 52/77/50 7/11/50
f 9/13/51 53/78/51 140/215/51 48/71/51
f 53/78/52 8/12/52 50/74/52 140/215/52
f 140/215/53 50/74/53 7/11/53 54/80/53
f 48/71/54 140/215/54 54/80/54 10/16/54
f 4/4/55 42/64/55 141/216/55 55/82/55
f 42/64/56 2/2/56 56/85/56 141/216/56
f 141/217/57 56/86/57 6/8/57 46/69/57
f 55/83/58 141/217/58 46/69/58 12/20/58
f 142/218/59 101/152/59 28/44/59 109/169/59
f 95/139/60 142/218/60 109/169/60 18/27/60
f 143/220/61 113/175/61 33/52/61 111/172/61
f 99/148/62 143/220/62 111/172/62 24/36/62
f 19/28/63 118/185/63 144/222/63 86/122/63
f 13/21/64 119/186/64 144/222/64 118/185/64
f 21/32/65 86/122/65 144/222/65 119/186/65
f 14/22/66 61/95/66 145/223/66 120/187/66
f 61/95/67 13/21/67 118/185/67 145/223/67
f 145/223/68 118/185/68 19/28/68 110/170/68
f 120/187/69 145/223/69 110/170/69 27/41/69
f 15/23/70 62/96/70 146/224/70 123/190/70
f 62/96/71 14/22/71 122/189/71 146/224/71
f 146/224/72 122/189/72 25/37/72 112/173/72
f 123/190/73 146/224/73 112/173/73 32/50/73
f 16/24/74 59/93/74 147/225/74 125/193/74
f 59/93/75 15/23/75 124/192/75 147/225/75
f 147/226/76 124/191/76 30/48/76 117/184/76
f 125/194/77 147/226/77 117/184/77 38/60/77
f 148/227/78 105/161/78 38/60/78 117/184/78
f 115/179/79 148/227/79 117/184/79 30/48/79
f 149/229/80 97/144/80 22/34/80 107/166/80
f 103/157/81 149/229/81 107/166/81 35/54/81
f 104/159/82 34/53/82 93/135/82 150/231/82
f 150/231/83 93/135/83 37/57/83 106/163/83
f 36/55/84 121/188/84 151/233/84 94/136/84
f 16/24/85 125/193/85 151/233/85 121/188/85
f 38/60/86 94/137/86 151/234/86 125/194/86
f 25/37/87 122/189/87 152/235/87 88/125/87
f 14/22/88 120/187/88 152/235/88 122/189/88
f 27/41/89 88/125/89 152/235/89 120/187/89
f 13/21/90 60/94/90 153/236/90 119/186/90
f 60/94/91 16/24/91 121/188/91 153/236/91
f 153/236/92 121/188/92 36/55/92 108/167/92
f 119/186/93 153/236/93 108/167/93 21/32/93
f 30/48/94 124/191/94 154/237/94 91/130/94
f 15/23/95 123/190/95 154/238/95 124/192/95
f 32/50/96 91/131/96 154/238/96 123/190/96
f 17/26/97 68/103/97 155/239/97 67/101/97
f 18/27/98 69/104/98 155/239/98 68/103/98
f 19/30/99 67/101/99 155/239/99 69/104/99
f 20/31/100 71/106/100 156/240/100 70/105/100
f 21/33/101 72/107/101 156/240/101 71/106/101
f 22/34/102 70/105/102 156/240/102 72/107/102
f 23/35/103 74/109/103 157/241/103 73/108/103
f 24/36/104 75/110/104 157/241/104 74/109/104
f 25/38/105 73/108/105 157/241/105 75/110/105
f 26/40/106 77/112/106 158/242/106 76/111/106
f 27/43/107 78/114/107 158/242/107 77/112/107
f 28/44/108 76/111/108 158/242/108 78/114/108
f 31/49/109 80/116/109 159/243/109 79/115/109
f 32/51/110 81/117/110 159/243/110 80/116/110
f 33/52/111 79/115/111 159/243/111 81/117/111
f 34/53/112 83/119/112 160/244/112 82/118/112
f 35/54/113 84/120/113 160/244/113 83/119/113
f 36/56/114 82/118/114 160/244/114 84/120/114
f 20/31/115 85/121/115 161/245/115 71/106/115
f 85/121/116 17/25/116 67/102/116 161/245/116
f 161/245/117 67/102/117 19/29/117 86/123/117
f 71/106/118 161/245/118 86/123/118 21/33/118
f 26/39/119 87/124/119 162/246/119 77/113/119
f 87/124/120 23/35/120 73/108/120 162/246/120
f 162/246/121 73/108/121 25/38/121 88/126/121
f 77/113/122 162/246/122 88/126/122 27/42/122
f 31/49/123 89/127/123 163/247/123 80/116/123
f 89/127/124 29/45/124 90/128/124 163/247/124
f 163/247/125 90/128/125 30/47/125 91/132/125
f 80/116/126 163/247/126 91/132/126 32/51/126
f 37/57/127 93/135/127 164/248/127 92/133/127
f 93/135/128 34/53/128 82/118/128 164/248/128
f 164/248/129 82/118/129 36/56/129 94/138/129
f 92/133/130 164/248/130 94/138/130 38/59/130
f 95/139/131 18/27/131 68/103/131 165/249/131
f 165/249/132 68/103/132 17/26/132 96/142/132
f 22/34/133 97/144/133 166/251/133 70/105/133
f 70/105/134 166/251/134 98/146/134 20/31/134
f 99/148/135 24/36/135 74/109/135 167/253/135
f 167/253/136 74/109/136 23/35/136 100/150/136
f 28/44/137 101/152/137 168/255/137 76/111/137
f 76/111/138 168/255/138 102/155/138 26/40/138
f 103/157/139 35/54/139 83/119/139 169/257/139
f 169/257/140 83/119/140 34/53/140 104/159/140
f 38/60/141 105/161/141 170/259/141 92/134/141
f 92/134/142 170/259/142 106/164/142 37/58/142
f 35/54/143 107/166/143 171/261/143 84/120/143
f 107/166/144 22/34/144 72/107/144 171/261/144
f 171/261/145 72/107/145 21/33/145 108/168/145
f 84/120/146 171/261/146 108/168/146 36/56/146
f 18/27/147 109/169/147 172/262/147 69/104/147
f 109/169/148 28/44/148 78/114/148 172/262/148
f 172/262/149 78/114/149 27/43/149 110/171/149
f 69/104/150 172/262/150 110/171/150 19/30/150
f 24/36/151 111/172/151 173/263/151 75/110/151
f 111/172/152 33/52/152 81/117/152 173/263/152
f 173/263/153 81/117/153 32/51/153 112/174/153
f 75/110/154 173/263/154 112/174/154 25/38/154
f 33/52/155 113/175/155 174/264/155 79/115/155
f 79/115/156 174/264/156 114/177/156 31/49/156
f 115/179/157 30/48/157 90/129/157 175/266/157
f 175/266/158 90/129/158 29/46/158 116/182/158
f 96/143/159 127/198/159 98/147/159 166/252/159 97/145/159 149/230/159 103/158/159 169/258/159 104/160/159 150/232/159 106/165/159 170/260/159 105/162/159 148/228/159 115/180/159 175/267/159 116/183/159 130/203/159 114/178/159 174/265/159 113/176/159 143/221/159 99/149/159 167/254/159 100/151/159 128/200/159 102/156/159 168/256/159 101/153/159 142/219/159 95/140/159 165/250/159
